<?xml version="1.0" encoding="UTF-8" standalone="no"?>
<!-- Created with Inkscape (http://www.inkscape.org/) -->

<svg
   xmlns:dc="http://purl.org/dc/elements/1.1/"
   xmlns:cc="http://creativecommons.org/ns#"
   xmlns:rdf="http://www.w3.org/1999/02/22-rdf-syntax-ns#"
   xmlns:svg="http://www.w3.org/2000/svg"
   xmlns="http://www.w3.org/2000/svg"
   xmlns:sodipodi="http://sodipodi.sourceforge.net/DTD/sodipodi-0.dtd"
   xmlns:inkscape="http://www.inkscape.org/namespaces/inkscape"
   width="338.66666mm"
   height="190.50002mm"
   viewBox="0 0 338.66666 190.50001"
   version="1.1"
   id="svg8"
   inkscape:version="0.92.3 (2405546, 2018-03-11)"
   sodipodi:docname="cover.svg"
   inkscape:export-filename="/home/alexandre/Documentos/Programação/Projetos/wca-statistics/img/cover.png"
   inkscape:export-xdpi="96"
   inkscape:export-ydpi="96">
  <defs
     id="defs2">
    <clipPath
       clipPathUnits="userSpaceOnUse"
       id="clipPath937">
      <path
         style="fill:none;stroke:#00026a;stroke-width:5;stroke-linecap:butt;stroke-linejoin:miter;stroke-miterlimit:4;stroke-dasharray:none;stroke-opacity:1"
         d="M 190,237 C 113.03735,238.20279 62.521084,204.38198 59.999996,107"
         id="path939"
         inkscape:connector-curvature="0"
         sodipodi:nodetypes="cc" />
    </clipPath>
    <clipPath
       clipPathUnits="userSpaceOnUse"
       id="clipPath1024">
      <rect
         style="opacity:1;fill:#000000;stroke:none;stroke-width:2.28952146;stroke-miterlimit:4;stroke-dasharray:none;stroke-opacity:1"
         id="rect1026"
         width="60"
         height="60"
         x="130"
         y="172" />
    </clipPath>
    <clipPath
       clipPathUnits="userSpaceOnUse"
       id="clipPath1051">
      <rect
         style="opacity:1;fill:#000000;stroke:none;stroke-width:2.28952146;stroke-miterlimit:4;stroke-dasharray:none;stroke-opacity:1"
         id="rect1053"
         width="60"
         height="60"
         x="65"
         y="107" />
    </clipPath>
  </defs>
  <sodipodi:namedview
     id="base"
     pagecolor="#ffffff"
     bordercolor="#666666"
     borderopacity="1.0"
     inkscape:pageopacity="0.0"
     inkscape:pageshadow="2"
     inkscape:zoom="0.24748738"
     inkscape:cx="1105.2737"
     inkscape:cy="267.454"
     inkscape:document-units="mm"
     inkscape:current-layer="layer1"
     showgrid="false"
     fit-margin-top="0"
     fit-margin-left="0"
     fit-margin-right="0"
     fit-margin-bottom="0"
     inkscape:window-width="1366"
     inkscape:window-height="713"
     inkscape:window-x="0"
     inkscape:window-y="27"
     inkscape:window-maximized="1" />
  <metadata
     id="metadata5">
    <rdf:RDF>
      <cc:Work
         rdf:about="">
        <dc:format>image/svg+xml</dc:format>
        <dc:type
           rdf:resource="http://purl.org/dc/dcmitype/StillImage" />
        <dc:title />
      </cc:Work>
    </rdf:RDF>
  </metadata>
  <g
     inkscape:label="Camada 1"
     inkscape:groupmode="layer"
     id="layer1"
     transform="translate(93.009796,-18.844757)">
    <g
       id="g914"
       style="opacity:0.2">
      <rect
         y="18.844757"
         x="-93.009796"
         height="190.48062"
         width="338.66666"
         id="rect875"
         style="opacity:1;fill:#000000;fill-opacity:1;stroke:none;stroke-width:4.17163563;stroke-miterlimit:4;stroke-dasharray:none;stroke-opacity:1" />
      <g
         transform="matrix(3.0830044,-0.80245001,0.80253168,3.0826907,-296.03359,-811.49237)"
         id="g923"
         style="">
        <rect
           style="opacity:1;fill:#ff6600;stroke:none;stroke-width:0.13239351;stroke-miterlimit:4;stroke-dasharray:none;stroke-opacity:1"
           id="rect815"
           width="3.4695504"
           height="3.4695504"
           x="0"
           y="293.53043" />
        <rect
           style="opacity:1;fill:#ffffff;stroke:none;stroke-width:0.13239351;stroke-miterlimit:4;stroke-dasharray:none;stroke-opacity:1"
           id="rect815-6"
           width="3.4695504"
           height="3.4695504"
           x="0"
           y="286.79852" />
        <rect
           style="opacity:1;fill:#ffff00;stroke:none;stroke-width:0.13239351;stroke-miterlimit:4;stroke-dasharray:none;stroke-opacity:1"
           id="rect815-5-9"
           width="3.4695504"
           height="3.4695504"
           x="6.7318916"
           y="286.79852" />
        <rect
           style="opacity:1;fill:#000080;stroke:none;stroke-width:0.13239351;stroke-miterlimit:4;stroke-dasharray:none;stroke-opacity:1"
           id="rect815-1"
           width="3.4695504"
           height="3.4695504"
           x="0"
           y="280.06665" />
        <rect
           style="opacity:1;fill:#ff0000;stroke:none;stroke-width:0.13239351;stroke-miterlimit:4;stroke-dasharray:none;stroke-opacity:1"
           id="rect815-3-27"
           width="3.4695504"
           height="3.4695504"
           x="13.463783"
           y="280.06665" />
        <rect
           style="opacity:1;fill:#ffffff;stroke:none;stroke-width:0.13239351;stroke-miterlimit:4;stroke-dasharray:none;stroke-opacity:1"
           id="rect815-5-0"
           width="3.4695504"
           height="3.4695504"
           x="6.7318916"
           y="280.06665" />
        <rect
           style="opacity:1;fill:#ffffff;stroke:none;stroke-width:0.13239351;stroke-miterlimit:4;stroke-dasharray:none;stroke-opacity:1"
           id="rect815-3-27-3"
           width="3.4695504"
           height="3.4695504"
           x="13.463783"
           y="286.79852" />
        <rect
           style="opacity:1;fill:#ffffff;stroke:none;stroke-width:0.13239351;stroke-miterlimit:4;stroke-dasharray:none;stroke-opacity:1"
           id="rect815-5-9-6"
           width="3.4695504"
           height="3.4695504"
           x="6.7318916"
           y="293.53043" />
        <rect
           style="opacity:1;fill:#008000;stroke:none;stroke-width:0.13239351;stroke-miterlimit:4;stroke-dasharray:none;stroke-opacity:1"
           id="rect815-3-27-3-7"
           width="3.4695504"
           height="3.4695504"
           x="13.463783"
           y="293.53043" />
      </g>
      <g
         transform="matrix(2.8879045,0,0,2.8876106,81.896557,-461.33071)"
         id="g986"
         style="">
        <rect
           style="opacity:1;fill:#ff0000;fill-opacity:1;stroke:#5c5c5c;stroke-width:1;stroke-miterlimit:4;stroke-dasharray:none;stroke-opacity:1"
           id="rect925"
           width="10.048222"
           height="31.163824"
           x="10.059155"
           y="169.08636" />
        <rect
           style="opacity:1;fill:#008000;fill-opacity:1;stroke:#5c5c5c;stroke-width:1;stroke-miterlimit:4;stroke-dasharray:none;stroke-opacity:1"
           id="rect925-5"
           width="10.37902"
           height="13.000267"
           x="30.228504"
           y="187.24992" />
        <rect
           style="opacity:1;fill:#000080;fill-opacity:1;stroke:#5c5c5c;stroke-width:1;stroke-miterlimit:4;stroke-dasharray:none;stroke-opacity:1"
           id="rect925-3"
           width="10.413587"
           height="11.578585"
           x="-0.35443115"
           y="188.6716" />
        <rect
           style="opacity:1;fill:#ffff00;fill-opacity:1;stroke:#5c5c5c;stroke-width:1;stroke-miterlimit:4;stroke-dasharray:none;stroke-opacity:1"
           id="rect925-56"
           width="10.121128"
           height="26.431112"
           x="20.107376"
           y="173.81908" />
        <rect
           style="opacity:1;fill:#ff6600;fill-opacity:1;stroke:#5c5c5c;stroke-width:1;stroke-miterlimit:4;stroke-dasharray:none;stroke-opacity:1"
           id="rect925-2"
           width="10.19374"
           height="17.497435"
           x="40.607525"
           y="182.75275" />
        <rect
           style="opacity:1;fill:#ffffff;fill-opacity:1;stroke:#5c5c5c;stroke-width:1;stroke-miterlimit:4;stroke-dasharray:none;stroke-opacity:1"
           id="rect925-9"
           width="10.19374"
           height="15.958928"
           x="-10.548171"
           y="184.29126" />
      </g>
      <g
         transform="matrix(1.2656369,0,0,1.2655081,5.938976,-182.56946)"
         id="g1040"
         style="">
        <rect
           y="240.18262"
           x="-63.040684"
           height="13.943169"
           width="73.696541"
           id="rect925-9-1"
           style="opacity:1;fill:#ffffff;fill-opacity:1;stroke:#5c5c5c;stroke-width:2.51324964;stroke-miterlimit:4;stroke-dasharray:none;stroke-opacity:1" />
        <rect
           y="254.12579"
           x="-63.040684"
           height="13.943169"
           width="73.696541"
           id="rect925-9-1-2"
           style="opacity:1;fill:#ffffff;fill-opacity:1;stroke:#5c5c5c;stroke-width:2.51324964;stroke-miterlimit:4;stroke-dasharray:none;stroke-opacity:1" />
        <rect
           y="268.06897"
           x="-63.040684"
           height="13.943169"
           width="73.696541"
           id="rect925-9-1-7"
           style="opacity:1;fill:#ffffff;fill-opacity:1;stroke:#5c5c5c;stroke-width:2.51324964;stroke-miterlimit:4;stroke-dasharray:none;stroke-opacity:1" />
        <rect
           y="282.01215"
           x="-63.040684"
           height="13.943169"
           width="73.696541"
           id="rect925-9-1-2-0"
           style="opacity:1;fill:#ffffff;fill-opacity:1;stroke:#5c5c5c;stroke-width:2.51324964;stroke-miterlimit:4;stroke-dasharray:none;stroke-opacity:1" />
      </g>
      <path
         sodipodi:nodetypes="caaaac"
         inkscape:connector-curvature="0"
         id="path1081"
         d="m -52.382862,129.65202 c 0,0 6.504686,3.09776 9.956116,3.07321 4.94965,-0.0351 9.273295,-4.62862 14.223027,-4.60982 4.29895,0.0169 8.03129,3.90627 12.32662,4.09764 6.6280138,0.29522 12.8137392,-4.98831 19.4381291,-4.60986 3.9923911,0.22813 11.3784209,4.09764 11.3784209,4.09764"
         style="fill:none;stroke:#000000;stroke-width:1.63639426;stroke-linecap:butt;stroke-linejoin:miter;stroke-miterlimit:4;stroke-dasharray:none;stroke-opacity:1" />
      <path
         sodipodi:nodetypes="caaaac"
         inkscape:connector-curvature="0"
         id="path1081-9"
         d="m -52.38286,148.33662 c 0,0 6.504686,-3.09779 9.956116,-3.07321 4.94965,0.0351 9.273295,4.62861 14.223027,4.6098 4.29895,-0.0169 8.03129,-3.90628 12.326618,-4.09762 6.6280159,-0.29523 12.8137414,4.98828 19.4381312,4.60986 3.9923912,-0.22815 11.3784188,-4.09764 11.3784188,-4.09764"
         style="fill:none;stroke:#000000;stroke-width:1.63639426;stroke-linecap:butt;stroke-linejoin:miter;stroke-miterlimit:4;stroke-dasharray:none;stroke-opacity:1" />
      <path
         sodipodi:nodetypes="caaaac"
         inkscape:connector-curvature="0"
         id="path1081-3"
         d="m 14.961695,165.01138 c 0,0 -6.5046857,3.09778 -9.9561161,3.07321 -4.94964927,-0.0351 -9.2732944,-4.62861 -14.2230263,-4.6098 -4.2989506,0.0169 -8.0312896,3.90627 -12.3266186,4.09762 -6.628015,0.29522 -12.813741,-4.98828 -19.438131,-4.60986 -3.992391,0.22815 -11.378419,4.09764 -11.378419,4.09764"
         style="fill:none;stroke:#000000;stroke-width:1.63639426;stroke-linecap:butt;stroke-linejoin:miter;stroke-miterlimit:4;stroke-dasharray:none;stroke-opacity:1" />
      <path
         sodipodi:nodetypes="caaaac"
         inkscape:connector-curvature="0"
         id="path1081-6"
         d="m 14.961695,183.69598 c 0,0 -6.5046857,-3.09776 -9.9561161,-3.07321 -4.94964927,0.0351 -9.2732944,4.62861 -14.2230263,4.60982 -4.2989506,-0.0169 -8.0312896,-3.90627 -12.3266186,-4.09764 -6.628015,-0.29523 -12.813741,4.9883 -19.438131,4.60986 -3.992391,-0.22813 -11.378419,-4.09764 -11.378419,-4.09764"
         style="fill:none;stroke:#000000;stroke-width:1.63639426;stroke-linecap:butt;stroke-linejoin:miter;stroke-miterlimit:4;stroke-dasharray:none;stroke-opacity:1" />
      <path
         inkscape:connector-curvature="0"
         id="path1119"
         d="m -58.949153,121.07368 v 70.99718"
         style="fill:none;stroke:#5c5c5c;stroke-width:3.17483854;stroke-linecap:butt;stroke-linejoin:miter;stroke-miterlimit:4;stroke-dasharray:none;stroke-opacity:1" />
      <g
         transform="matrix(9.416754,0,0,9.4157957,-93.078789,-2523.6934)"
         id="g879"
         style="">
        <path
           style="fill:none;stroke:#000cd3;stroke-width:1.73477519;stroke-linecap:butt;stroke-linejoin:miter;stroke-miterlimit:4;stroke-dasharray:none;stroke-opacity:1"
           d="M 0.62054718,289.64548 12.91672,277.43633 l 6.8155,7.4481 14.997941,-13.32098"
           id="path103"
           inkscape:connector-curvature="0"
           sodipodi:nodetypes="cccc" />
        <path
           style="fill:#000cd3;fill-opacity:1;stroke:none;stroke-width:0.17347753px;stroke-linecap:butt;stroke-linejoin:miter;stroke-opacity:1"
           d="m 32.502044,270.02903 h 3.469551 v 3.46955 z"
           id="path910"
           inkscape:connector-curvature="0" />
      </g>
      <g
         transform="matrix(1.1610451,0,0,1.1610451,18.653543,-135.05894)"
         id="g885"
         style="">
        <g
           id="g1077"
           transform="matrix(1.3176075,0,0,1.3174734,85.369077,166.24748)"
           style="">
          <circle
             r="26.080357"
             cy="69.98745"
             cx="37.536308"
             id="path1044"
             style="opacity:1;fill:#ffffff;fill-opacity:1;stroke:#5c5c5c;stroke-width:2;stroke-miterlimit:4;stroke-dasharray:none;stroke-opacity:1" />
          <path
             inkscape:connector-curvature="0"
             id="path1048"
             d="m 48.70987,46.635256 -11.125094,23.386081 25.29038,5.412206"
             style="fill:none;stroke:#5c5c5c;stroke-width:1;stroke-linecap:butt;stroke-linejoin:miter;stroke-miterlimit:4;stroke-dasharray:none;stroke-opacity:1" />
          <path
             inkscape:connector-curvature="0"
             id="path1050"
             d="M 53.988443,89.999736 37.584776,70.02134 19.91158,89.197924"
             style="fill:none;stroke:#5c5c5c;stroke-width:1;stroke-linecap:butt;stroke-linejoin:miter;stroke-miterlimit:4;stroke-dasharray:none;stroke-opacity:1" />
          <path
             inkscape:connector-curvature="0"
             id="path1052"
             d="M 13.363476,79.843493 37.584776,70.02134 19.377041,51.245652"
             style="fill:none;stroke:#5c5c5c;stroke-width:1;stroke-linecap:butt;stroke-linejoin:miter;stroke-miterlimit:4;stroke-dasharray:none;stroke-opacity:1" />
          <circle
             r="2.7311835"
             cy="69.98745"
             cx="37.536308"
             id="path1046"
             style="opacity:1;fill:#5c5c5c;fill-opacity:1;stroke:none;stroke-width:2.09617162;stroke-miterlimit:4;stroke-dasharray:none;stroke-opacity:1" />
        </g>
        <path
           style="opacity:1;fill:#ffff00;fill-opacity:1;stroke:#5c5c5c;stroke-width:5.72684908;stroke-miterlimit:4;stroke-dasharray:none;stroke-opacity:1"
           d="m 831.07478,870.59748 c -14.39269,-14.86187 -32.65576,-33.6456 -40.5846,-41.74161 l -14.41608,-14.72004 6.55472,-5.31813 c 13.64175,-11.06816 31.72417,-20.02828 49.37642,-24.46676 11.79185,-2.96495 37.16487,-3.70989 50.04161,-1.46921 8.56429,1.49028 26.04611,6.60102 29.15786,8.52419 0.87473,0.54061 -5.96708,15.9274 -23.76297,53.44138 -23.38491,49.29574 -25.15873,52.68506 -27.5949,52.72697 -2.10477,0.0362 -7.61673,-5.13183 -28.77206,-26.97679 z"
           id="path56"
           inkscape:connector-curvature="0"
           transform="matrix(0.26458333,0,0,0.26458333,-93.009796,18.844757)" />
        <path
           style="opacity:1;fill:#008000;fill-opacity:1;stroke:#5c5c5c;stroke-width:5.72684908;stroke-miterlimit:4;stroke-dasharray:none;stroke-opacity:1"
           d="m 924.79487,916.65892 c -52.02914,-11.21061 -54.98831,-11.96625 -56.24357,-14.36199 -1.36126,-2.59806 2.02328,-10.11982 43.51713,-96.71205 l 5.48966,-11.45618 3.80357,2.28578 c 11.98274,7.20112 18.96877,12.55482 27.57464,21.13166 24.38747,24.30521 36.45356,53.67934 36.25813,88.26813 -0.0992,17.54842 -0.82854,22.29295 -3.46066,22.51071 -1.11117,0.0919 -26.73367,-5.15781 -56.9389,-11.66606 z"
           id="path58"
           inkscape:connector-curvature="0"
           transform="matrix(0.26458333,0,0,0.26458333,-93.009796,18.844757)" />
        <path
           style="opacity:1;fill:#ff6600;fill-opacity:1;stroke:#5c5c5c;stroke-width:5.72684908;stroke-miterlimit:4;stroke-dasharray:none;stroke-opacity:1"
           d="m 905.77606,955.63052 c -20.10897,-24.52419 -36.40739,-44.74382 -36.21871,-44.9325 0.52393,-0.52393 111.04713,23.20807 112.00056,24.04923 1.26706,1.11783 -4.84619,18.32013 -10.18169,28.65062 -5.6335,10.90751 -13.86833,22.03056 -22.64736,30.59053 l -6.39104,6.2316 z"
           id="path60"
           inkscape:connector-curvature="0"
           transform="matrix(0.26458333,0,0,0.26458333,-93.009796,18.844757)" />
        <path
           style="opacity:1;fill:#ffffff;fill-opacity:1;stroke:#5c5c5c;stroke-width:5.72684908;stroke-miterlimit:4;stroke-dasharray:none;stroke-opacity:1"
           d="m 850.41394,1029.593 c -16.49746,-1.2879 -34.61174,-6.7328 -49.29959,-14.8188 -7.91237,-4.3559 -22.0257,-14.5423 -21.65897,-15.63237 0.13634,-0.40527 17.74878,-19.8046 39.13876,-43.10964 36.93966,-40.24689 39.06826,-42.37392 42.42641,-42.39502 3.44282,-0.0216 4.4891,1.14307 39.90102,44.41745 20.00102,24.44181 36.50062,44.82468 36.66577,45.29538 0.4193,1.1949 -11.84134,9.1436 -21.51348,13.9475 -19.84292,9.8552 -42.52033,14.1018 -65.65992,12.2955 z"
           id="path62"
           inkscape:connector-curvature="0"
           transform="matrix(0.26458333,0,0,0.26458333,-93.009796,18.844757)" />
        <path
           style="opacity:1;fill:#000080;fill-opacity:1;stroke:#5c5c5c;stroke-width:5.72684908;stroke-miterlimit:4;stroke-dasharray:none;stroke-opacity:1"
           d="m 769.1641,989.65861 c -2.85039,-3.11877 -7.17173,-8.45909 -9.60297,-11.86736 -4.95861,-6.95126 -13.16515,-21.71361 -12.46181,-22.41694 1.0338,-1.0338 100.24482,-40.86664 101.08683,-40.58597 0.79862,0.2662 -70.5391,78.50099 -72.92508,79.97561 -0.50295,0.31084 -3.24659,-1.98656 -6.09697,-5.10534 z"
           id="path64"
           inkscape:connector-curvature="0"
           transform="matrix(0.26458333,0,0,0.26458333,-93.009796,18.844757)" />
        <path
           style="opacity:1;fill:#ff0000;fill-opacity:1;stroke:#5c5c5c;stroke-width:5.72684908;stroke-miterlimit:4;stroke-dasharray:none;stroke-opacity:1"
           d="m 743.9397,948.03676 c -1.60051,-2.99056 -4.93163,-16.63244 -6.23055,-25.51581 -1.85197,-12.66568 -0.70942,-34.51618 2.43714,-46.60894 3.35918,-12.90984 8.52739,-25.41306 14.39761,-34.83144 5.27078,-8.45662 16.258,-22.52428 17.59207,-22.52428 0.47026,0 18.95703,18.67133 41.08172,41.49183 31.64987,32.64525 40.15181,41.96032 39.8754,43.6891 -0.19322,1.2085 -0.48066,2.33319 -0.63876,2.49931 -0.30673,0.3223 -106.75743,43.63959 -107.24274,43.63959 -0.15813,0 -0.73048,-0.82771 -1.27189,-1.83936 z"
           id="path66"
           inkscape:connector-curvature="0"
           transform="matrix(0.26458333,0,0,0.26458333,-93.009796,18.844757)" />
      </g>
    </g>
  </g>
</svg>
